<svg xmlns="http://www.w3.org/2000/svg">
  <!-- Usage -->
  <!-- <svg class="nav-icon"><use xlink:href="assets/img/icons.svg#icon-xxx"></use></svg> -->

  <symbol id="icon-windows"       viewBox="0 0 14 16"><path d="M5 3h1v1h-1V3zM3 3h1v1h-1V3zM1 3h1v1H1V3zM13 13H1V5h12V13zM13 4H7v-1h6V4zM14 3c0-0.55-0.45-1-1-1H1c-0.55 0-1 0.45-1 1v10c0 0.55 0.45 1 1 1h12c0.55 0 1-0.45 1-1V3z" /></symbol>
  <symbol id="icon-menu"          viewBox="0 0 12 16"><path d="M11.41 9H0.59c-0.59 0-0.59-0.41-0.59-1s0-1 0.59-1h10.81c0.59 0 0.59 0.41 0.59 1s0 1-0.59 1z m0-4H0.59c-0.59 0-0.59-0.41-0.59-1s0-1 0.59-1h10.81c0.59 0 0.59 0.41 0.59 1s0 1-0.59 1zM0.59 11h10.81c0.59 0 0.59 0.41 0.59 1s0 1-0.59 1H0.59c-0.59 0-0.59-0.41-0.59-1s0-1 0.59-1z" /></symbol>
  <symbol id="icon-native-ui"     viewBox="0 0 16 16"><path d="M15 2H1c-0.55 0-1 0.45-1 1v9c0 0.55 0.45 1 1 1h5.34c-0.25 0.61-0.86 1.39-2.34 2h8c-1.48-0.61-2.09-1.39-2.34-2h5.34c0.55 0 1-0.45 1-1V3c0-0.55-0.45-1-1-1z m0 9H1V3h14v8z" /></symbol>
  <symbol id="icon-communication" viewBox="0 0 16 16"><path d="M10 1c-0.17 0-0.36 0.05-0.52 0.14-1.44 0.88-4.98 3.44-6.48 3.86-1.38 0-3 0.67-3 2.5s1.63 2.5 3 2.5c0.3 0.08 0.64 0.23 1 0.41v4.59h2V11.55c1.34 0.86 2.69 1.83 3.48 2.31 0.16 0.09 0.34 0.14 0.52 0.14 0.52 0 1-0.42 1-1V2c0-0.58-0.48-1-1-1z m0 12c-0.38-0.23-0.89-0.58-1.5-1-0.16-0.11-0.33-0.22-0.5-0.34V3.31c0.16-0.11 0.31-0.2 0.47-0.31 0.61-0.41 1.16-0.77 1.53-1v11z m2-6h4v1H12v-1z m0 2l4 2v1L12 10v-1z m4-6v1L12 6v-1l4-2z" /></symbol>
  <symbol id="icon-system"        viewBox="0 0 16 16"><path d="M8 5h-1v-1h1v1z m4 3h-1v1h1v-1zM5 5h-1v1h1v-1z m-1 3h-1v1h1v-1z m11-5.5l-0.5-0.5-6.5 5c-0.06-0.02-1 0-1 0-0.55 0-1 0.45-1 1v1c0 0.55 0.45 1 1 1h1c0.55 0 1-0.45 1-1v-0.92l6-5.58zM13.41 6.59c0.19 0.61 0.3 1.25 0.3 1.91 0 3.42-2.78 6.2-6.2 6.2S1.3 11.92 1.3 8.5s2.78-6.2 6.2-6.2c1.2 0 2.31 0.34 3.27 0.94l0.94-0.94c-1.19-0.81-2.64-1.3-4.2-1.3C3.36 1 0 4.36 0 8.5s3.36 7.5 7.5 7.5 7.5-3.36 7.5-7.5c0-1.03-0.2-2.02-0.59-2.91l-1 1z" /></symbol>
  <symbol id="icon-media"         viewBox="0 0 12 16"><path d="M6 5h2v2H6V5z m6-0.5v9.5c0 0.55-0.45 1-1 1H1c-0.55 0-1-0.45-1-1V2c0-0.55 0.45-1 1-1h7.5l3.5 3.5z m-1 0.5L8 2H1v11l3-5 2 4 2-2 3 3V5z" /></symbol>
  <symbol id="icon-notification" viewBox="0 0 32 32">
    <path d="M32.047 25c0-9-8-7-8-14 0-0.58-0.056-1.076-0.158-1.498-0.526-3.532-2.88-6.366-5.93-7.23 0.027-0.123 0.041-0.251 0.041-0.382 0-1.040-0.9-1.891-2-1.891s-2 0.851-2 1.891c0 0.131 0.014 0.258 0.041 0.382-3.421 0.969-5.966 4.416-6.039 8.545-0.001 0.060-0.002 0.121-0.002 0.183 0 7-8 5-8 14 0 2.382 5.331 4.375 12.468 4.878 0.673 1.263 2.002 2.122 3.532 2.122s2.86-0.86 3.532-2.122c7.137-0.503 12.468-2.495 12.468-4.878 0-0.007-0.001-0.014-0.001-0.021l0.048 0.021zM25.82 26.691c-1.695 0.452-3.692 0.777-5.837 0.958-0.178-2.044-1.893-3.648-3.984-3.648s-3.805 1.604-3.984 3.648c-2.144-0.18-4.142-0.506-5.837-0.958-2.332-0.622-3.447-1.318-3.855-1.691 0.408-0.372 1.523-1.068 3.855-1.691 2.712-0.724 6.199-1.122 9.82-1.122s7.109 0.398 9.82 1.122c2.332 0.622 3.447 1.318 3.855 1.691-0.408 0.372-1.523 1.068-3.855 1.691z"></path>
  </symbol>

  <symbol id="icon-mediumdesk" viewBox="0 0 32 32" stroke="none" stroke-width="1" fill="none" fill-rule="evenodd">
    <g id="Desktop" transform="translate(1.450667, 3.882667)" stroke-width="0.5">
      <polygon id="Rectangle-551" stroke="#A9C7D8" fill="#A9C7D8" stroke-linecap="round" stroke-linejoin="round" points="11.9356049 22.2451358 16.9923951 22.2451358 18.5094321 24.2678519 10.4185679 24.2678519"></polygon>
      <path d="M0.0107242,0.850263465 C0.0107242,0.38067592 0.399413392,2.4253192e-15 0.864395431,2.4253192e-15 L28.2067956,2.4253192e-15 C28.6782652,2.4253192e-15 29.0604668,0.383748241 29.0604668,0.850263465 L29.0604668,19.2110617 L0.0107242,19.2110617 L0.0107242,0.850263465 Z" id="Rectangle-549" stroke-opacity="0.2" stroke="#32FC8D" fill-opacity="0.2" fill="#32FC8D"></path>
      <rect id="Rectangle-550" stroke="#DBEEF7" fill="#DBEEF7" x="0.2607242" y="19.4610617" width="28.5497426" height="3.03975309"></rect>
      <circle id="Oval-543" stroke="#A9C7D8" cx="14.451358" cy="20.979358" r="1"></circle>
    </g>
    <g id="Medium" transform="translate(7.168000, 5.973333)">
      <path d="M11.9676987,0.0173168578 C11.8778876,-0.027541047 11.8044444,0.0178031223 11.8044444,0.118095186 L11.8044444,12.4519524 L17.21088,15.152301 C17.4802526,15.2868747 17.7006427,15.1507814 17.7006427,14.8499052 L17.7006427,2.97726996 C17.7006427,2.91812803 17.6671765,2.8640311 17.6142391,2.83759047 L11.9676987,0.0173168578" id="Fill-6" fill="#32FC8D"></path>
      <path d="M5.90222222,9.57041679 L11.702768,0.154511606 C11.7554012,0.0691113947 11.8719245,0.0359238391 11.9617356,0.0807817439 L17.5648308,2.8793558 C17.634623,2.9141845 17.6595097,3.00134742 17.6186201,3.06772253 L11.7984205,12.5154173 L5.90222222,9.57041679" id="Fill-7" fill="#0BE370"></path>
      <path d="M0.677901947,0.323085136 C0.318718258,0.1437143 0.197022955,0.276464522 0.407494982,0.618126152 L5.92108325,9.56812911 L11.8172816,12.5131296 L5.95917388,3.00380082 C5.93428719,2.96331929 5.89850877,2.93067879 5.85603711,2.90940471 L0.677901947,0.323085136" id="Fill-9" fill="#14C767"></path>
      <path d="M5.89625915,14.9072678 C5.89625915,15.208144 5.67580811,15.3442373 5.40643556,15.2096636 L0.326569347,12.6723959 C0.146947079,12.5826801 0,12.3452007 0,12.1446165 L0,0.357806959 C0,0.157222832 0.146947079,0.0664737101 0.326569347,0.15618952 L5.82354621,2.90182152 C5.86808669,2.92406812 5.89625915,2.96953386 5.89625915,3.01931519 L5.89625915,14.9072678" id="Fill-10" fill="#00AB6C"></path>
    </g>
  </symbol>
</svg>
