<svg width="512" height="512" viewBox="0 0 512 512" fill="none" xmlns="http://www.w3.org/2000/svg">
<path d="M349.657 18.343C348.914 17.6001 348.032 17.0109 347.062 16.6089C346.091 16.2069 345.051 16 344 16H120C105.153 16.0167 90.9189 21.922 80.4204 32.4204C69.922 42.9189 64.0167 57.153 64 72V440C64.0167 454.847 69.922 469.081 80.4204 479.58C90.9189 490.078 105.153 495.983 120 496H392C406.847 495.983 421.081 490.078 431.58 479.58C442.078 469.081 447.983 454.847 448 440V120C448 118.949 447.793 117.909 447.391 116.938C446.989 115.968 446.4 115.086 445.657 114.343L349.657 18.343ZM352 43.313L420.687 112H392C381.395 111.988 371.228 107.77 363.729 100.271C356.23 92.7722 352.012 82.605 352 72V43.313ZM120 32H336V72C336.017 86.847 341.922 101.081 352.42 111.58C362.919 122.078 377.153 127.983 392 128H432V352H80V72C80.0119 61.395 84.23 51.2278 91.7289 43.7289C99.2278 36.23 109.395 32.0119 120 32V32ZM392 480H120C109.395 479.988 99.2278 475.77 91.7289 468.271C84.23 460.772 80.0119 450.605 80 440V368H432V440C431.988 450.605 427.77 460.772 420.271 468.271C412.772 475.77 402.605 479.988 392 480V480Z" fill="black"/>
<path d="M212.321 267H298.679C299.559 267 300.404 266.631 301.027 265.975C301.65 265.318 302 264.428 302 263.5V193.5C302 192.572 301.65 191.682 301.027 191.025C300.404 190.369 299.559 190 298.679 190H212.321C211.441 190 210.596 190.369 209.973 191.025C209.35 191.682 209 192.572 209 193.5V263.5C209 264.428 209.35 265.318 209.973 265.975C210.596 266.631 211.441 267 212.321 267ZM219.232 260L238.946 234.033L252.948 251.741C253.376 252.282 253.949 252.674 254.591 252.866C255.234 253.059 255.917 253.043 256.55 252.82L274.694 246.447L289.7 260H219.232ZM295.357 197V255.89L277.59 239.843C277.154 239.449 276.63 239.182 276.067 239.065C275.504 238.949 274.922 238.989 274.378 239.18L256.6 245.424L241.446 226.259C241.134 225.865 240.744 225.548 240.303 225.33C239.861 225.112 239.38 225 238.893 225H238.86C238.367 225.005 237.882 225.125 237.439 225.352C236.996 225.579 236.607 225.907 236.299 226.312L215.643 253.522V197H295.357Z" fill="black"/>
<path d="M269 232C270.978 232 272.911 231.384 274.556 230.23C276.2 229.077 277.482 227.437 278.239 225.518C278.996 223.6 279.194 221.488 278.808 219.452C278.422 217.415 277.47 215.544 276.071 214.075C274.673 212.607 272.891 211.607 270.951 211.202C269.011 210.797 267 211.005 265.173 211.799C263.346 212.594 261.784 213.94 260.685 215.667C259.586 217.393 259 219.423 259 221.5C259.003 224.284 260.057 226.953 261.932 228.921C263.807 230.89 266.349 231.997 269 232V232ZM269 218C269.659 218 270.304 218.205 270.852 218.59C271.4 218.974 271.827 219.521 272.08 220.161C272.332 220.8 272.398 221.504 272.269 222.183C272.141 222.862 271.823 223.485 271.357 223.975C270.891 224.464 270.297 224.798 269.65 224.933C269.004 225.068 268.333 224.998 267.724 224.734C267.115 224.469 266.595 224.02 266.228 223.445C265.862 222.869 265.667 222.192 265.667 221.5C265.668 220.572 266.019 219.682 266.644 219.026C267.269 218.37 268.116 218.001 269 218Z" fill="black"/>
<path d="M224 400H240C242.122 400 244.157 399.157 245.657 397.657C247.157 396.157 248 394.122 248 392C248 389.878 247.157 387.843 245.657 386.343C244.157 384.843 242.122 384 240 384H224C217.635 384 211.53 386.529 207.029 391.029C202.529 395.53 200 401.635 200 408C200 414.365 202.529 420.47 207.029 424.971C211.53 429.471 217.635 432 224 432C226.122 432 228.157 432.843 229.657 434.343C231.157 435.843 232 437.878 232 440C232 442.122 231.157 444.157 229.657 445.657C228.157 447.157 226.122 448 224 448H208C205.878 448 203.843 448.843 202.343 450.343C200.843 451.843 200 453.878 200 456C200 458.122 200.843 460.157 202.343 461.657C203.843 463.157 205.878 464 208 464H224C230.365 464 236.47 461.471 240.971 456.971C245.471 452.47 248 446.365 248 440C248 433.635 245.471 427.53 240.971 423.029C236.47 418.529 230.365 416 224 416C221.878 416 219.843 415.157 218.343 413.657C216.843 412.157 216 410.122 216 408C216 405.878 216.843 403.843 218.343 402.343C219.843 400.843 221.878 400 224 400Z" fill="black"/>
<path d="M288 400H304C306.122 400 308.157 399.157 309.657 397.657C311.157 396.157 312 394.122 312 392C312 389.878 311.157 387.843 309.657 386.343C308.157 384.843 306.122 384 304 384H288C281.635 384 275.53 386.529 271.029 391.029C266.529 395.53 264 401.635 264 408C264 414.365 266.529 420.47 271.029 424.971C275.53 429.471 281.635 432 288 432C290.122 432 292.157 432.843 293.657 434.343C295.157 435.843 296 437.878 296 440C296 442.122 295.157 444.157 293.657 445.657C292.157 447.157 290.122 448 288 448H272C269.878 448 267.843 448.843 266.343 450.343C264.843 451.843 264 453.878 264 456C264 458.122 264.843 460.157 266.343 461.657C267.843 463.157 269.878 464 272 464H288C294.365 464 300.47 461.471 304.971 456.971C309.471 452.47 312 446.365 312 440C312 433.635 309.471 427.53 304.971 423.029C300.47 418.529 294.365 416 288 416C285.878 416 283.843 415.157 282.343 413.657C280.843 412.157 280 410.122 280 408C280 405.878 280.843 403.843 282.343 402.343C283.843 400.843 285.878 400 288 400Z" fill="black"/>
<path d="M165.091 329H201.455C203.866 329 206.178 328.042 207.883 326.337C209.588 324.632 210.545 322.32 210.545 319.909V310.818H301.455V319.909C301.455 322.32 302.412 324.632 304.117 326.337C305.822 328.042 308.134 329 310.545 329H346.909C349.32 329 351.632 328.042 353.337 326.337C355.042 324.632 356 322.32 356 319.909V283.545C356 281.134 355.042 278.822 353.337 277.117C351.632 275.412 349.32 274.455 346.909 274.455H337.818V183.545H346.909C349.32 183.545 351.632 182.588 353.337 180.883C355.042 179.178 356 176.866 356 174.455V138.091C356 135.68 355.042 133.368 353.337 131.663C351.632 129.958 349.32 129 346.909 129H310.545C308.134 129 305.822 129.958 304.117 131.663C302.412 133.368 301.455 135.68 301.455 138.091V147.182H210.545V138.091C210.545 135.68 209.588 133.368 207.883 131.663C206.178 129.958 203.866 129 201.455 129H165.091C162.68 129 160.368 129.958 158.663 131.663C156.958 133.368 156 135.68 156 138.091V174.455C156 176.866 156.958 179.178 158.663 180.883C160.368 182.588 162.68 183.545 165.091 183.545H174.182V274.455H165.091C162.68 274.455 160.368 275.412 158.663 277.117C156.958 278.822 156 281.134 156 283.545V319.909C156 322.32 156.958 324.632 158.663 326.337C160.368 328.042 162.68 329 165.091 329ZM337.818 310.818H319.636V292.636H337.818V310.818ZM319.636 147.182H337.818V165.364H319.636V147.182ZM174.182 147.182H192.364V165.364H174.182V147.182ZM192.364 183.545H201.455C203.866 183.545 206.178 182.588 207.883 180.883C209.588 179.178 210.545 176.866 210.545 174.455V165.364H301.455V174.455C301.455 176.866 302.412 179.178 304.117 180.883C305.822 182.588 308.134 183.545 310.545 183.545H319.636V274.455H310.545C308.134 274.455 305.822 275.412 304.117 277.117C302.412 278.822 301.455 281.134 301.455 283.545V292.636H210.545V283.545C210.545 281.134 209.588 278.822 207.883 277.117C206.178 275.412 203.866 274.455 201.455 274.455H192.364V183.545ZM174.182 292.636H192.364V310.818H174.182V292.636Z" fill="black"/>
</svg>
