<?xml version="1.0" encoding="UTF-8"?>
<svg width="32px" height="32px" viewBox="0 0 32 32" version="1.1" xmlns="http://www.w3.org/2000/svg" xmlns:xlink="http://www.w3.org/1999/xlink">
    <title>mediumdesk</title>
    <g id="mediumdesk" stroke="none" stroke-width="1" fill="none" fill-rule="evenodd">
        <g id="Desktop" transform="translate(1.000000, 4.000000)">
            <polygon id="Rectangle-551" fill="#029E74" points="12.5 23 17.5 23 19 25 11 25"></polygon>
            <rect id="Rectangle-550" fill="#029E74" x="0" y="19" width="30" height="4"></rect>
            <circle id="Oval-543" fill="#CEFDE9" cx="15" cy="21" r="1"></circle>
            <polygon id="Rectangle-549" fill="#292929" points="0 0 30 0 30 19 0 19"></polygon>
        </g>
        <path d="M10.6601307,10.2439741 C10.6775246,10.0738868 10.6119878,9.90577443 10.4836601,9.79129922 L9.17647059,8.23280423 L9.17647059,8 L13.2352941,8 L16.372549,14.8095238 L19.130719,8 L23,8 L23,8.23280423 L21.8823529,9.29335684 C21.7859995,9.36604639 21.7382033,9.48551681 21.75817,9.60376249 L21.75817,17.3962375 C21.7382033,17.5144832 21.7859995,17.6339536 21.8823529,17.7066432 L22.9738562,18.7671958 L22.9738562,19 L17.4836601,19 L17.4836601,18.7671958 L18.6143791,17.680776 C18.7254902,17.5708407 18.7254902,17.5385068 18.7254902,17.3703704 L18.7254902,11.0717225 L15.5816993,18.9741329 L15.1568627,18.9741329 L11.496732,11.0717225 L11.496732,16.3680188 C11.4662152,16.59069 11.540938,16.8148712 11.6993464,16.9758966 L13.1699346,18.7413287 L13.1699346,18.9741329 L9,18.9741329 L9,18.7413287 L10.4705882,16.9758966 C10.6278433,16.8146042 10.698209,16.5889359 10.6601307,16.3680188 L10.6601307,10.2439741 Z" id="Path" fill="#FFFFFF" fill-rule="nonzero"></path>
    </g>
</svg>