<svg width="16" height="16" viewBox="0 0 16 16" fill="none" xmlns="http://www.w3.org/2000/svg">
<path d="M7.60957 10.488C7.80973 10.2378 8.19027 10.2378 8.39043 10.488L11.3501 14.1877C11.612 14.515 11.3789 15 10.9597 15H5.04031C4.62106 15 4.38797 14.515 4.64988 14.1877L7.60957 10.488Z" fill="#009F74"/>
<g filter="url(#filter0_d)">
<path d="M1 2C1 1.44772 1.44772 1 2 1H14C14.5523 1 15 1.44772 15 2V10H1V2Z" fill="black"/>
</g>
<g filter="url(#filter1_d)">
<path d="M1 10H15V12C15 12.5523 14.5523 13 14 13H2C1.44772 13 1 12.5523 1 12V10Z" fill="#009F74"/>
</g>
<line x1="3" y1="3.5" x2="13" y2="3.5" stroke="white"/>
<line x1="3" y1="5.5" x2="13" y2="5.5" stroke="white"/>
<line x1="3" y1="7.5" x2="11" y2="7.5" stroke="white"/>
<g style="mix-blend-mode:lighten" opacity="0.5">
<circle cx="8" cy="11.5" r="0.75" fill="white"/>
</g>
<defs>
<filter id="filter0_d" x="0.5" y="1" width="15" height="10" filterUnits="userSpaceOnUse" color-interpolation-filters="sRGB">
<feFlood flood-opacity="0" result="BackgroundImageFix"/>
<feColorMatrix in="SourceAlpha" type="matrix" values="0 0 0 0 0 0 0 0 0 0 0 0 0 0 0 0 0 0 127 0"/>
<feOffset dy="0.5"/>
<feGaussianBlur stdDeviation="0.25"/>
<feColorMatrix type="matrix" values="0 0 0 0 0 0 0 0 0 0 0 0 0 0 0 0 0 0 0.25 0"/>
<feBlend mode="normal" in2="BackgroundImageFix" result="effect1_dropShadow"/>
<feBlend mode="normal" in="SourceGraphic" in2="effect1_dropShadow" result="shape"/>
</filter>
<filter id="filter1_d" x="0.5" y="10" width="15" height="4" filterUnits="userSpaceOnUse" color-interpolation-filters="sRGB">
<feFlood flood-opacity="0" result="BackgroundImageFix"/>
<feColorMatrix in="SourceAlpha" type="matrix" values="0 0 0 0 0 0 0 0 0 0 0 0 0 0 0 0 0 0 127 0"/>
<feOffset dy="0.5"/>
<feGaussianBlur stdDeviation="0.25"/>
<feColorMatrix type="matrix" values="0 0 0 0 0 0 0 0 0 0 0 0 0 0 0 0 0 0 0.25 0"/>
<feBlend mode="normal" in2="BackgroundImageFix" result="effect1_dropShadow"/>
<feBlend mode="normal" in="SourceGraphic" in2="effect1_dropShadow" result="shape"/>
</filter>
</defs>
</svg>
