<svg width="16" height="16" viewBox="0 0 16 16" fill="none" xmlns="http://www.w3.org/2000/svg">
<rect width="16" height="16" rx="1" fill="black"/>
<path d="M3.82812 11.6953C4.12891 11.6758 4.3457 11.6328 4.47852 11.5664C4.71289 11.4453 4.83008 11.2246 4.83008 10.9043V4.98633C4.83008 4.67773 4.71875 4.46289 4.49609 4.3418C4.36719 4.27148 4.14453 4.22266 3.82812 4.19531V3.89062H7.49609C8.97656 3.89062 10.1055 4.28516 10.8828 5.07422C11.5898 5.79297 11.9434 6.75781 11.9434 7.96875C11.9434 9.05469 11.5879 9.97461 10.877 10.7285C10.0762 11.5762 8.99023 12 7.61914 12H3.82812V11.6953ZM6.76953 10.8926C6.78125 11.1387 6.82617 11.3164 6.9043 11.4258C6.98633 11.5352 7.1582 11.5898 7.41992 11.5898C8.13086 11.5898 8.71484 11.3398 9.17188 10.8398C9.62891 10.3359 9.85742 9.37109 9.85742 7.94531C9.85742 7.09766 9.73438 6.36914 9.48828 5.75977C9.08984 4.7793 8.41797 4.28906 7.47266 4.28906C7.16016 4.28906 6.95703 4.35547 6.86328 4.48828C6.80078 4.57422 6.76953 4.74023 6.76953 4.98633V10.8926Z" fill="white"/>
</svg>
